<svg xmlns="http://www.w3.org/2000/svg" xmlns:xlink="http://www.w3.org/1999/xlink" xml:space="preserve" viewBox="0 0 200 200"><defs><linearGradient id="a"><stop offset=".08" stop-color="#fff"/><stop offset="1" stop-color="#fff" stop-opacity=".5"/></linearGradient><linearGradient xlink:href="#a" id="b" x1="34.66" x2="234.09" y1="145.66" y2="140.33" gradientUnits="userSpaceOnUse"/></defs><g fill="none"><path fill="url(#b)" fill-opacity=".4" d="M84.56 73.89s30.02 22.78 75.66-19.82c40.54-37.84 73.64 21.86 73.87 50.44.3 37.03-40.54 66.66-20.72 90.98s-39.3 64.5-71.16 29.73c-39.64-43.24-50.38-8.1-72.97-8.1-16.21 0-49.5-40.3-27.02-70.27 18.92-25.22 8.6-33.6 3.6-42.34-7.2-12.6 9.91-46.84 38.74-30.62" transform="translate(-4.55 -4.58)scale(.74523)"/><path fill="#fff" fill-opacity=".77" d="M165.15 83.4c-6.26.12-32 6.91-38.55 9.67-4.07 1.71-3.17 2.72-1.71 3.26 1.2.45 2.52.48 3.77.19 5.24-1.2 46.65-12.72 43.52 1.24-.68 2.77-11.23 18.29 3.8 23.95q1.66.63 3.44.67c4.62.1 13.78-1 17.63-4.9 4.63-4.72-.43-2.47-.43-2.47s-17.62 7.68-23.85-.47a7 7 0 0 1-1.25-3.36c-.23-1.97.65-4.57 1.8-6.84 1.55-3.06 9.01-16.84-7.18-20.86q-.35-.08-.99-.07M13.23 86.65c-2.69.06-5.79.6-9.28 2.07-6.99 2.94.65 3.8.65 3.8s25.18-7.08 21.52 9.22c-.63 2.58-9.77 15.86 1.12 22.24a15 15 0 0 0 7.74 1.96c4.86-.02 34.2-11.24 37.65-14.76 4.64-4.72-.42-2.49-.42-2.49s-36.1 16.23-43.55 11.48a7.15 7.15 0 0 1-3-7.67q.53-2.2 1.6-4.2c1.62-3.02 9.01-16.83-7.18-20.85a26 26 0 0 0-6.85-.8"/><path fill="#fff" d="M158.73 89.98c-8.6 0-15.69 7.08-15.69 15.7 0 8.6 7.08 15.69 15.7 15.69 8.6 0 15.69-7.08 15.69-15.7s-7.08-15.69-15.7-15.69m0 8.97a6.65 6.65 0 0 1 6.73 6.72 6.66 6.66 0 0 1-6.73 6.73 6.65 6.65 0 0 1-6.72-6.73 6.65 6.65 0 0 1 6.72-6.72m-79.27 1.91a10.86 10.86 0 1 0 0 21.72 10.86 10.86 0 0 0 0-21.72m35.4 35.44a26.6 26.6 0 0 0-26.5 26.5 26.6 26.6 0 0 0 26.5 26.48 26.6 26.6 0 0 0 26.49-26.49 26.6 26.6 0 0 0-26.5-26.49m-77.54 7.77a10.5 10.5 0 0 0-10.47 10.47c0 5.75 4.73 10.47 10.47 10.47s10.47-4.72 10.47-10.47-4.72-10.47-10.47-10.47m0 5.99a4.44 4.44 0 0 1 4.49 4.48 4.44 4.44 0 0 1-4.49 4.49 4.44 4.44 0 0 1-4.48-4.49 4.44 4.44 0 0 1 4.48-4.48m77.53 1.38c6.36 0 11.35 5 11.35 11.35 0 6.36-5 11.35-11.35 11.35s-11.34-5-11.34-11.35 4.99-11.35 11.34-11.35M65.13 201.8a10.86 10.86 0 1 0 0 21.72 10.86 10.86 0 0 0 0-21.72m93.2 12.74a14 14 0 1 0 0 27.99 14 14 0 0 0 0-27.99" font-family="Cantarell" font-size="12" letter-spacing="0" style="-inkscape-font-specification:Cantarell" transform="translate(20.6 -6.71)scale(.66557)" word-spacing="0"/></g></svg>