<svg xmlns="http://www.w3.org/2000/svg" xmlns:xlink="http://www.w3.org/1999/xlink" xml:space="preserve" viewBox="0 0 200 200"><defs><linearGradient id="a"><stop offset=".1" stop-color="#fff" stop-opacity=".8"/><stop offset="1" stop-color="#fff" stop-opacity=".5"/></linearGradient><linearGradient xlink:href="#a" id="b" x1="50.2" x2="195.5" y1="93.1" y2="228.8" gradientTransform="rotate(.3 1042.8 -827.4)scale(.74523)" gradientUnits="userSpaceOnUse"/></defs><g fill="none"><path fill="url(#b)" fill-opacity=".4" d="M58.7 50.3s22.3 17 56.5-14.5c30.3-28 54.8 16.5 54.9 37.8 0 27.6-30.5 49.6-15.8 67.8s-29.5 47.9-53.2 21.9c-29.3-32.4-37.5-6.2-54.3-6.3-12 0-33.5-12.7-16.7-35 14.2-18.7 3.3-42.5-.3-49-5.4-9.5 7.5-35 29-22.7" transform="rotate(24 100 100)"/><path fill="#9d9d9d" d="m154.3 131.5-86.8 26.7a5.7 5.7 0 0 1-7.1-3.8l-10.2-33-8.4-27.5-.2-.6 1.2-1.3 37.7-43.5a1.4 1.4 0 0 1 1.4-.5l55.7 14.9 1.7.4.5 1.7 18.3 59.4a5.7 5.7 0 0 1-3.8 7.1"/><path fill="#898989" d="m139.8 65-32.9 38.8v-2.1l30.7-38.8 1.7.4z"/><path fill="#d1d1d1" d="M154.4 131.5h-.2l-53.1-19.8h-.2v-.4l9-11.1 28.9-36.5.4-.1.2.2 18.5 60.1v.4a5.7 5.7 0 0 1-3.6 7"/><path fill="#898989" d="m97.7 109.5-.5 1-55-17H42a.3.3 0 0 0-.2.4l-.2-.6 1.2-1.3z"/><path fill="#d1d1d1" d="m100.4 111.9-32.9 46.2-.1.1a5.7 5.7 0 0 1-7-3.8l-10.2-33-8.4-27.5a.3.3 0 0 1 .3-.4l55 17 3.2 1 .2.3z"/><path fill="#b4b4b4" d="m154.3 131.5-86.8 26.7a6 6 0 0 1-6.9-3 1 1 0 0 1 .1-1.4l34.6-56.4a1.4 1.4 0 0 1 1.8-.6l60.3 27.3a1 1 0 0 1 .8 1 6 6 0 0 1-3.9 6.4"/></g></svg>