<svg xmlns="http://www.w3.org/2000/svg" xml:space="preserve" width="960" height="960"><path fill="#524c94" d="M647.3 222.5a60.5 60.5 0 0 0-61 61q0 17.6 8.2 31.4l-3.3 5.5-66 90.3a94 94 0 0 0-38.6-8.8 96 96 0 0 0-95.2 88l-154.6 17.6A39 39 0 0 0 207 495a40.7 40.7 0 0 0-40 40 40.7 40.7 0 0 0 76.5 19.3L399 535a94 94 0 0 0 86.4 57.3 96 96 0 0 0 95.2-95.8q0-29.7-16.5-53.4l72.6-99 11 1c33 0 61.7-28.5 61.7-62.1s-28-61.1-62.2-61.1m0 38c13.2 0 23.7 11 23.7 23a22 22 0 0 1-23.7 23.7 22 22 0 0 1-23.1-23.6 22 22 0 0 1 23.1-23.1m-311.5 5.5a40 40 0 0 0-39.6 39.6 40.2 40.2 0 1 0 79.8 0 39 39 0 0 0-40.2-39.6m40.7 72L356.2 354l23.6 30.2 20.4-16.5zm29.8 39.1-19.9 16.6 23.7 30.2 20.4-16zM486 447a49.5 49.5 0 0 1 50 49.5 49.5 49.5 0 0 1-49.5 50.6 49.5 49.5 0 0 1-51.2-50 49.5 49.5 0 0 1 50.6-49.6m-279 71c9.4 0 16.5 7.2 16.5 16.5s-7.1 16-16.5 16a16.5 16.5 0 0 1-16-16.5 16.5 16.5 0 0 1 16.6-16.5M569 558.7l-18.7 18.2 27.6 27.5 18.1-18.7zm-138.6 25.9-23 49.4 25.3 11 22-49.5zm173.3 9.3-19.2 18.2 27.5 27.5 18.1-18.2zm60.6 24.2a53.4 53.4 0 0 0-52.3 52.3c0 29.2 23.6 53.4 52.3 53.4s52.8-24.2 52.8-53.4a53.4 53.4 0 0 0-52.8-52.3m-263 24.9a36 36 0 0 0-34.7 34.7 36 36 0 0 0 35.2 35.7 36 36 0 0 0 34.7-35.7 36 36 0 0 0-35.2-35.2"/></svg>