<svg xmlns="http://www.w3.org/2000/svg" xml:space="preserve" width="128" height="128"><g style="line-height:125%;-inkscape-font-specification:Cantarell;mix-blend-mode:normal" word-spacing="0"><path fill="#524c94" d="M-32.47 94.28a17.4 17.4 0 0 0-17.34 17.33c0 3.2.9 6.2 2.45 8.8l-1.08 1.48-18.42 25.44a26 26 0 0 0-11.07-2.45 26.85 26.85 0 0 0-26.65 24.57l-43.52 5.18a11.3 11.3 0 0 0-8.26-3.63 11.4 11.4 0 0 0-11.37 11.37c0 6.24 5.13 11.37 11.37 11.37 4.35 0 8.16-2.5 10.07-6.13l43.89-5.22c4.17 9.4 13.58 16 24.47 16a26.85 26.85 0 0 0 26.75-26.75c0-5.52-1.7-10.67-4.6-14.95l20.3-28.02q1.46.27 3.01.28c9.51 0 17.34-7.83 17.34-17.34s-7.83-17.33-17.34-17.33m0 10.74c3.7 0 6.59 2.9 6.59 6.6a6.5 6.5 0 0 1-6.59 6.58 6.5 6.5 0 0 1-6.59-6.59 6.5 6.5 0 0 1 6.59-6.59m-87.68 1.52a11.3 11.3 0 0 0-11.27 11.27c0 6.19 5.08 11.28 11.27 11.28s11.27-5.1 11.27-11.28-5.08-11.27-11.27-11.27m11.38 20.34-5.75 4.47 6.7 8.62 5.75-4.46zm8.49 10.93-5.75 4.46 6.7 8.63 5.75-4.47zm22.35 19.7c7.88 0 14.13 6.25 14.13 14.13s-6.25 14.13-14.13 14.13a14.04 14.04 0 0 1-14.13-14.13c0-7.88 6.25-14.13 14.13-14.13m-78.43 20.3c2.55 0 4.56 2 4.56 4.56s-2 4.56-4.56 4.56a4.5 4.5 0 0 1-4.56-4.56c0-2.56 2-4.56 4.56-4.56m101.73 11.32-5.14 5.15 7.73 7.71 5.14-5.15zm-39 7.1-6.35 14.13 7.07 3.17 6.34-14.13zm48.8 2.67-5.15 5.15 7.73 7.71 5.14-5.15zm17.18 6.84a14.9 14.9 0 0 0-14.81 14.81c0 8.13 6.68 14.82 14.81 14.82s14.82-6.69 14.82-14.82-6.69-14.81-14.82-14.81m-74 6.88a9.94 9.94 0 0 0-9.9 9.9c0 5.43 4.47 9.9 9.9 9.9s9.9-4.47 9.9-9.9-4.47-9.9-9.9-9.9" color="#000" font-family="Cantarell" font-weight="400" letter-spacing="0" overflow="visible" style="line-height:125%;-inkscape-font-specification:Cantarell;font-variant-ligatures:normal;font-variant-position:normal;font-variant-caps:normal;font-variant-numeric:normal;font-variant-alternates:normal;font-feature-settings:normal;text-indent:0;text-align:start;text-decoration-line:none;text-decoration-style:solid;text-decoration-color:#000;text-transform:none;text-orientation:mixed;white-space:normal;shape-padding:0;isolation:auto;mix-blend-mode:normal;solid-color:#000;solid-opacity:1" transform="translate(117.68 -46.55)scale(.64557)"/></g></svg>