<svg xmlns="http://www.w3.org/2000/svg" xml:space="preserve" width="128" height="128"><path fill="#524c94" d="M94.4 17.2a11 11 0 0 0-11.1 11.1q0 3.2 1.5 5.7l-.6 1-12 16.4a17 17 0 0 0-7-1.6 17.4 17.4 0 0 0-17.3 16L19.8 69a7 7 0 0 0-5.4-2.3A7.4 7.4 0 0 0 7.1 74 7.4 7.4 0 0 0 21 77.5L49.3 74A17 17 0 0 0 65 84.4 17.4 17.4 0 0 0 82.3 67q0-5.4-3-9.7l13.2-18 2 .2c6 0 11.2-5.2 11.2-11.3s-5.1-11.1-11.3-11.1m0 6.9c2.4 0 4.3 2 4.3 4.2a4 4 0 0 1-4.3 4.3 4 4 0 0 1-4.2-4.3 4 4 0 0 1 4.2-4.2m-56.6 1a7.3 7.3 0 0 0-7.2 7.2 7.3 7.3 0 1 0 14.5 0c0-4.1-3.2-7.2-7.3-7.2m7.4 13.1-3.7 3 4.3 5.5 3.7-3zm5.4 7.1-3.6 3 4.3 5.5 3.7-2.9zM65.1 58a9 9 0 0 1 9.1 9 9 9 0 0 1-9 9.2 9 9 0 0 1-9.3-9.1 9 9 0 0 1 9.2-9M14.4 71c1.7 0 3 1.3 3 3s-1.3 2.9-3 2.9a3 3 0 0 1-2.9-3 3 3 0 0 1 3-3m65.7 7.4-3.4 3.3 5 5 3.3-3.4zM55 83l-4.2 9 4.6 2 4-9zm31.5 1.7L83 88l5 5 3.3-3.3zm11 4.4a9.7 9.7 0 0 0-9.5 9.5c0 5.3 4.3 9.7 9.5 9.7s9.6-4.4 9.6-9.7a9.7 9.7 0 0 0-9.6-9.5m-47.8 4.5a6.5 6.5 0 0 0-6.3 6.3 6.5 6.5 0 0 0 6.4 6.5 6.5 6.5 0 0 0 6.3-6.5 6.5 6.5 0 0 0-6.4-6.4"/></svg>